<svg height="512" viewBox="0 0 128 128" width="512" xmlns="http://www.w3.org/2000/svg"><g><path d="m85 12.933h5a5 5 0 0 1 5 5v65.75a5 5 0 0 1 -5 5h-5a0 0 0 0 1 0 0v-75.75a0 0 0 0 1 0 0z" fill="#596c76"/><path d="m85 88.678a135 135 0 0 0 -69.436-19.227h-3.814a10 10 0 0 1 -10-10v-17.291a10 10 0 0 1 10-10h3.814a135 135 0 0 0 69.436-19.227z" fill="#979fef"/><path d="m95 41.846h4.125a6 6 0 0 1 6 6v5.924a6 6 0 0 1 -6 6h-4.125a0 0 0 0 1 0 0v-17.924a0 0 0 0 1 0 0z" fill="#ffda2d"/><path d="m16.575 69.468-7.03 40.921a4 4 0 0 0 3.943 4.678h9.134a4 4 0 0 0 3.942-3.323l7.057-41.077a135.071 135.071 0 0 0 -17.046-1.199z" fill="#596c76"/><path d="m15.563 40.16h-3.813a2 2 0 0 0 -2 2v17.291a2 2 0 0 0 2 2h3.813a142.984 142.984 0 0 1 31.062 3.421v-28.133a142.984 142.984 0 0 1 -31.062 3.421z" fill="#737ee6"/><path d="m31.942 80.439-3.032 17.652h5.072a4 4 0 0 0 3.942-3.323l1.658-9.652a4 4 0 0 0 -3.942-4.677z" fill="#ffda2d"/><g fill="#f2f2fc"><path d="m126.25 52.559h-9.875a1.75 1.75 0 0 1 0-3.5h9.875a1.75 1.75 0 0 1 0 3.5z"/><path d="m111.6 41.023a1.75 1.75 0 0 1 -1.238-2.987l6.983-6.982a1.749 1.749 0 1 1 2.474 2.474l-6.982 6.983a1.742 1.742 0 0 1 -1.237.512z"/><path d="m111.6 41.023a1.75 1.75 0 0 1 -1.238-2.987l6.983-6.982a1.749 1.749 0 1 1 2.474 2.474l-6.982 6.983a1.742 1.742 0 0 1 -1.237.512z"/><path d="m118.58 71.076a1.746 1.746 0 0 1 -1.237-.512l-6.983-6.984a1.75 1.75 0 0 1 2.475-2.475l6.982 6.984a1.75 1.75 0 0 1 -1.237 2.987z"/><path d="m118.58 71.076a1.746 1.746 0 0 1 -1.237-.512l-6.983-6.984a1.75 1.75 0 0 1 2.475-2.475l6.982 6.984a1.75 1.75 0 0 1 -1.237 2.987z"/></g></g></svg>